<svg width="180" height="22" viewBox="0 0 180 22" fill="none" xmlns="http://www.w3.org/2000/svg">
<path d="M17.3544 5.94824C15.305 5.94824 13.4301 6.95539 12.2963 8.55004C11.4243 6.91342 9.72371 5.94824 7.63071 5.94824C5.75574 5.94824 3.96797 6.82949 2.79066 8.21432L2.31102 6.49378C2.26741 6.36789 2.1802 6.28396 2.04939 6.28396H0.305228C0.130812 6.28396 0 6.40985 0 6.57771V20.9295C0 21.0974 0.130812 21.2233 0.305228 21.2233H2.87787C3.05228 21.2233 3.1831 21.0974 3.1831 20.9295V13.0402C3.1831 10.4804 4.79645 8.67593 6.84584 8.67593C8.80802 8.67593 9.85452 10.0608 9.85452 12.4527V20.9295C9.85452 21.0974 9.98533 21.2233 10.1597 21.2233H12.6888C12.8632 21.2233 12.994 21.0974 12.994 20.9295V13.0402C12.994 10.4804 14.5638 8.67593 16.6568 8.67593C18.5753 8.67593 19.6654 10.0608 19.6654 12.4527V20.9295C19.6654 21.0974 19.7962 21.2233 19.9707 21.2233H22.5869C22.7613 21.2233 22.8921 21.0974 22.8921 20.9295V11.6974C22.8485 8.34021 20.6247 5.94824 17.3544 5.94824Z" fill="#0A1B2B"/>
<path d="M38.6772 6.49375L38.372 8.13036C36.9767 6.74554 34.9709 5.90625 32.7035 5.90625C28.0814 5.90625 24.6367 9.2634 24.6367 13.7536C24.6367 18.2438 28.0814 21.6009 32.7035 21.6009C34.9709 21.6009 36.9331 20.7616 38.3284 19.4188L38.59 21.0134C38.6336 21.1393 38.7208 21.2652 38.8952 21.2652H40.901C41.0754 21.2652 41.2063 21.1393 41.2063 20.9715V6.53572C41.2063 6.36786 41.0754 6.24197 40.901 6.24197H38.9825C38.8516 6.24197 38.7208 6.36786 38.6772 6.49375ZM32.9215 18.6215C30 18.6215 27.8198 16.5232 27.8198 13.7116C27.8198 10.9 30 8.80179 32.9215 8.80179C35.843 8.80179 37.9796 10.9 37.9796 13.7116C37.9796 16.5652 35.843 18.6215 32.9215 18.6215Z" fill="#0A1B2B"/>
<path d="M52.9792 8.80101V6.49297C52.9792 6.32511 52.8484 6.19922 52.6739 6.19922H50.5373C48.9896 6.19922 47.5742 6.70875 46.4557 7.56001L45.9153 6.45204C45.8717 6.36811 45.7409 6.28418 45.6537 6.28418H44.302C44.1275 6.28418 43.9967 6.41007 43.9967 6.57793V11.8026C43.9679 12.0433 43.9531 12.288 43.9531 12.5358V20.9287C43.9531 21.0966 44.0839 21.2225 44.2584 21.2225H46.831C47.0054 21.2225 47.1362 21.0966 47.1362 20.9287V13.2492C47.1362 10.5635 48.4443 9.09476 51.1042 9.09476H52.6739C52.8484 9.09476 52.9792 8.96887 52.9792 8.80101Z" fill="#0A1B2B"/>
<path d="M68.0205 20.9711L62.3956 13.4175L67.4973 6.49338C67.5845 6.40945 67.4973 6.28355 67.3665 6.28355H64.1834C64.009 6.28355 63.7909 6.36748 63.7037 6.53534L58.9073 13.1238C58.7765 13.3336 58.7765 13.5854 58.9073 13.7952L64.1398 21.0131C64.2706 21.1809 64.445 21.2648 64.6194 21.2648H67.9333C68.0205 21.2229 68.1077 21.097 68.0205 20.9711ZM57.4247 0.912109H54.8521C54.6777 0.912109 54.5469 1.038 54.5469 1.20586V20.9291C54.5469 21.097 54.6777 21.2229 54.8521 21.2229H57.4247C57.5992 21.2229 57.73 21.097 57.73 20.9291V1.20586C57.6864 1.038 57.5556 0.912109 57.4247 0.912109Z" fill="#0A1B2B"/>
<path d="M75.3916 5.90625C70.8568 5.90625 67.4121 9.2634 67.4121 13.7536C67.4121 18.2018 70.8568 21.6009 75.3916 21.6009C78.7928 21.6009 81.5834 19.7545 82.8479 16.7331C82.8915 16.6491 82.8043 16.5232 82.7171 16.5232H79.9265C79.7085 16.5232 79.534 16.6072 79.4032 16.775C78.5747 17.992 77.1358 18.7054 75.3916 18.7054C72.8626 18.7054 71.0312 17.2366 70.6388 14.8027H82.6735C82.9788 14.8027 83.2404 14.5509 83.284 14.2572C83.284 14.0893 83.284 13.9634 83.284 13.7956C83.3276 9.43126 80.1445 5.90625 75.3916 5.90625ZM70.726 12.2848C71.2493 10.0607 72.9934 8.6759 75.3916 8.6759C77.7463 8.6759 79.534 10.0188 80.1009 12.2848H70.726Z" fill="#0A1B2B"/>
<path d="M101.903 12.2009C100.028 11.9072 98.4584 11.6554 98.4584 10.3125C98.4584 9.22144 99.5485 8.50804 101.336 8.50804C103.08 8.50804 104.214 9.17948 104.389 10.4384C104.389 10.5643 104.519 10.6902 104.694 10.6902H107.136C107.31 10.6902 107.441 10.5643 107.441 10.3964C107.223 7.66876 104.912 5.90625 101.467 5.90625C97.848 5.90625 95.4498 7.75268 95.4498 10.4384C95.4498 13.8795 98.502 14.467 101.075 14.8866C102.993 15.1804 104.65 15.5161 104.65 16.9429C104.65 18.2018 103.342 18.8733 101.598 18.8733C99.8102 18.8733 98.502 18.1179 98.284 16.6911C98.284 16.5652 98.1532 16.4393 97.9788 16.4393H95.4498C95.2753 16.4393 95.1445 16.5652 95.1445 16.7331C95.3626 19.6706 97.8044 21.517 101.467 21.517C105.261 21.517 107.746 19.6286 107.746 16.7331C107.746 13.1241 104.563 12.6206 101.903 12.2009Z" fill="#0A1B2B"/>
<path d="M94.185 18.7053V20.9294C94.185 21.0972 94.0541 21.2231 93.8797 21.2231H91.7867C88.3856 21.2231 86.2926 19.2088 86.2926 15.8936V8.88559H83.8072C83.6328 8.88559 83.502 8.7597 83.502 8.59184V6.53559C83.502 6.36773 83.6328 6.24183 83.8072 6.24183H85.8566C86.2054 6.24183 86.467 5.99005 86.467 5.65433V3.05254C86.467 2.88468 86.5978 2.75879 86.7723 2.75879H89.1705C89.3449 2.75879 89.4757 2.88468 89.4757 3.05254V6.24183H93.7925C93.9669 6.24183 94.0977 6.36773 94.0977 6.53559V8.59184C94.0977 8.7597 93.9669 8.88559 93.7925 8.88559H89.4757V15.6419C89.4757 17.4044 90.5222 18.4115 92.3972 18.4115H93.8797C94.0541 18.4115 94.185 18.5374 94.185 18.7053Z" fill="#0A1B2B"/>
<path d="M135.26 15.7679C135.042 15.7679 134.824 15.8938 134.736 16.0616C133.864 17.6982 132.295 18.6215 130.376 18.6215C127.629 18.6215 125.492 16.4813 125.492 13.7116C125.492 10.942 127.585 8.80179 130.376 8.80179C132.295 8.80179 133.908 9.72501 134.78 11.2777C134.867 11.4456 135.085 11.5714 135.303 11.5714H137.919C138.007 11.5714 138.094 11.4875 138.05 11.4036C137.135 8.0884 134.17 5.90625 130.42 5.90625C125.798 5.90625 122.266 9.2634 122.266 13.7116C122.266 18.1599 125.798 21.559 130.42 21.559C134.17 21.559 137.222 19.3349 138.137 15.9357C138.181 15.8518 138.094 15.7679 138.007 15.7679H135.26Z" fill="#0A1B2B"/>
<path d="M147.425 5.90625C142.673 5.90625 139.141 9.22144 139.141 13.7536C139.141 18.2438 142.673 21.6009 147.425 21.6009C152.178 21.6009 155.71 18.2438 155.71 13.7536C155.71 9.22144 152.135 5.90625 147.425 5.90625ZM147.425 18.6215C144.504 18.6215 142.367 16.5652 142.367 13.7116C142.367 10.858 144.46 8.80179 147.425 8.80179C150.347 8.80179 152.483 10.858 152.483 13.7116C152.483 16.5652 150.347 18.6215 147.425 18.6215Z" fill="#0A1B2B"/>
<path d="M174.591 5.94824C172.542 5.94824 170.667 6.95539 169.533 8.55004C168.661 6.91342 166.961 5.94824 164.868 5.94824C162.993 5.94824 161.205 6.82949 160.028 8.21432L159.548 6.49378C159.504 6.36789 159.374 6.28396 159.243 6.28396H157.499C157.324 6.28396 157.193 6.40985 157.193 6.57771V20.9295C157.193 21.0974 157.324 21.2233 157.499 21.2233H160.071C160.246 21.2233 160.376 21.0974 160.376 20.9295V13.0402C160.376 10.4804 161.99 8.67593 164.039 8.67593C166.001 8.67593 167.048 10.0608 167.048 12.4527V20.9295C167.048 21.0974 167.179 21.2233 167.353 21.2233H169.882C170.057 21.2233 170.187 21.0974 170.187 20.9295V13.0402C170.187 10.4804 171.757 8.67593 173.806 8.67593C175.725 8.67593 176.815 10.0608 176.815 12.4527V20.9295C176.815 21.0974 176.946 21.2233 177.12 21.2233H179.693C179.867 21.2233 179.998 21.0974 179.998 20.9295V11.6974C180.085 8.34021 177.862 5.94824 174.591 5.94824Z" fill="#0A1B2B"/>
<path d="M115.027 12.8723C117.026 12.8723 118.646 11.3129 118.646 9.3893C118.646 7.46566 117.026 5.90625 115.027 5.90625C113.029 5.90625 111.408 7.46566 111.408 9.3893C111.408 11.3129 113.029 12.8723 115.027 12.8723Z" fill="#6E6FD5"/>
<path opacity="0.63" d="M115.027 18.0762C117.026 18.0762 118.646 17.0992 118.646 15.8941C118.646 14.6889 117.026 13.7119 115.027 13.7119C113.029 13.7119 111.408 14.6889 111.408 15.8941C111.408 17.0992 113.029 18.0762 115.027 18.0762Z" fill="#6E6FD5"/>
<path opacity="0.4" d="M115.027 21.5598C117.026 21.5598 118.646 20.9774 118.646 20.2589C118.646 19.5404 117.026 18.958 115.027 18.958C113.029 18.958 111.408 19.5404 111.408 20.2589C111.408 20.9774 113.029 21.5598 115.027 21.5598Z" fill="#6E6FD5"/>
</svg>
